<?xml version="1.0" encoding="utf-8"?>
<!-- Generator: Adobe Illustrator 19.2.1, SVG Export Plug-In . SVG Version: 6.00 Build 0)  -->
<svg version="1.1" id="layer" xmlns="http://www.w3.org/2000/svg" xmlns:xlink="http://www.w3.org/1999/xlink" x="0px" y="0px"
	 viewBox="0 0 652 652" style="enable-background:new 0 0 652 652;" xml:space="preserve">
<style type="text/css">
	.st0{fill:#3640F5;}
	.st1{fill:#353FF4;}
	.st2{opacity:0.5;}
</style>
<g>
	<path class="st0" d="M332.9,287.3c-11,0-19.3,4.4-24,12.8v-10.8h-12.6v74.4h12.6v-38.7c0-7.8,2-14.2,5.9-18.8c3.9-4.6,9.3-7,16.1-7
		c5.7,0,10.3,1.9,13.7,5.6c3.3,3.7,5,9.4,5,17v42h12.6v-44.3c0-10.6-2.6-18.8-7.7-24.1C349.5,290.1,341.9,287.3,332.9,287.3"/>
	<path class="st0" d="M586.2,287.3c-21.7,0-39.3,17.6-39.3,39.3s17.6,39.3,39.3,39.3c21.7,0,39.3-17.6,39.3-39.3
		S607.9,287.3,586.2,287.3 M612.7,326.5c0,15.1-11.9,27.4-26.5,27.4c-14.6,0-26.5-12.3-26.5-27.4s11.9-27.4,26.5-27.4
		C600.8,299.2,612.7,311.4,612.7,326.5"/>
	<path class="st0" d="M245,287.3c-21.7,0-39.3,17.6-39.3,39.3s17.6,39.3,39.3,39.3c21.7,0,39.3-17.6,39.3-39.3
		S266.7,287.3,245,287.3 M271.5,326.5c0,15.1-11.9,27.4-26.5,27.4c-14.6,0-26.5-12.3-26.5-27.4s11.9-27.4,26.5-27.4
		C259.6,299.2,271.5,311.4,271.5,326.5"/>
	<path class="st0" d="M523,299.7c-7.1-8-17.1-12.5-27.6-12.5c-20.8,0-37.8,17.6-37.8,39.3s17,39.3,37.8,39.3
		c10.5,0,20.5-4.5,27.6-12.5v10.4h12.6V259.2H523V299.7z M522.6,326.5c0,15.1-11.9,27.4-26.5,27.4c-14.6,0-26.5-12.3-26.5-27.4
		s11.9-27.4,26.5-27.4C510.8,299.2,522.6,311.4,522.6,326.5"/>
	<path class="st0" d="M438.8,255.6c-2.6,0-4.9,0.9-6.8,2.8c-1.9,1.9-2.8,4.1-2.8,6.8s0.9,4.9,2.8,6.8c1.9,1.9,4.1,2.8,6.8,2.8
		c2.6,0,4.9-0.9,6.8-2.8c1.9-1.9,2.8-4.1,2.8-6.8c0-2.6-0.9-4.9-2.8-6.8C443.7,256.6,441.4,255.6,438.8,255.6"/>
	<rect x="432.5" y="289.3" class="st0" width="12.6" height="74.4"/>
	<path class="st0" d="M396.6,289.3v-14.7c0-3.7,3-6.6,6.6-6.6h14.7v-11.5h-16.1c-9.9,0-17.8,8-17.8,17.8v15h-13.9V301H384v62.8h12.6
		V301h21.3v-11.7H396.6z"/>
	<path class="st1" d="M73.9,314.4c-6.7,12-2.3,27.2,9.7,33.8c12,6.7,27.2,2.3,33.8-9.7c6.7-12,2.3-27.2-9.7-33.8
		C95.8,298,80.6,302.4,73.9,314.4"/>
	<path class="st1" d="M63.3,375.3c-1.4,0.9-2.8,1.8-4.2,2.7c-0.9,0.7-1.1,2-0.3,2.8c3.7,4,7.7,7.8,11.9,11.4c4.4,3.8,10.3,5.2,16,4
		c6-1.3,11.9-3,17.4-5c8.3-3,16.3-6.7,23.7-11.2c1.4-0.8,2.7-1.7,4-2.5c0.8-0.5,0.7-1.6,0-2.1C111.5,363.1,85.2,362.2,63.3,375.3"/>
	<path class="st1" d="M117.5,338.5c6.7-12,2.3-27.2-9.7-33.8s-27.2-2.3-33.8,9.7c-6.7,12-2.3,27.2,9.7,33.8
		C95.7,354.9,110.8,350.6,117.5,338.5"/>
	<g class="st2">
		<g>
			<g>
				<path class="st1" d="M128.1,277.6c1.4-0.9,2.8-1.8,4.2-2.7c0.9-0.7,1.1-2,0.3-2.8c-3.7-4-7.7-7.8-11.9-11.4
					c-4.4-3.8-10.3-5.2-16-4c-6,1.3-11.9,3-17.4,5c-8.3,3-16.3,6.7-23.7,11.2c-1.4,0.8-2.7,1.7-4,2.5c-0.8,0.5-0.7,1.6,0,2.1
					C79.9,289.8,106.3,290.7,128.1,277.6"/>
			</g>
		</g>
	</g>
	<g class="st2">
		<g>
			<g>
				<path class="st1" d="M46.9,294.1c-0.9-1.4-1.8-2.8-2.7-4.2c-0.7-0.9-2-1.1-2.8-0.3c-4,3.7-7.8,7.7-11.4,11.9
					c-3.8,4.4-5.2,10.3-4,16c1.3,6,3,11.9,5,17.4c3,8.3,6.7,16.3,11.2,23.7c0.8,1.4,1.7,2.7,2.5,4c0.5,0.8,1.6,0.7,2.1,0
					C59.1,342.3,60,315.9,46.9,294.1"/>
			</g>
		</g>
	</g>
	<g class="st2">
		<g>
			<g>
				<path class="st1" d="M144.6,358.9c0.9,1.4,1.8,2.8,2.7,4.2c0.7,0.9,2,1.1,2.8,0.3c4-3.7,7.8-7.7,11.4-11.9
					c3.8-4.4,5.2-10.3,4-16c-1.3-6-3-11.9-5-17.4c-3-8.3-6.7-16.3-11.2-23.7c-0.8-1.4-1.7-2.7-2.5-4c-0.5-0.8-1.6-0.7-2.1,0
					C132.3,310.7,131.5,337,144.6,358.9"/>
			</g>
		</g>
	</g>
	<g class="st2">
		<g>
			<g>
				<path class="st1" d="M63.3,375.3c-1.4,0.9-2.8,1.8-4.2,2.7c-0.9,0.7-1.1,2-0.3,2.8c3.7,4,7.7,7.8,11.9,11.4
					c4.4,3.8,10.3,5.2,16,4c6-1.3,11.9-3,17.4-5c8.3-3,16.3-6.7,23.7-11.2c1.4-0.8,2.7-1.7,4-2.5c0.8-0.5,0.7-1.6,0-2.1
					C111.5,363.1,85.2,362.2,63.3,375.3"/>
			</g>
		</g>
	</g>
</g>
</svg>
